<svg width="180" height="32" viewBox="0 0 180 32" fill="none" xmlns="http://www.w3.org/2000/svg">
<g clip-path="url(#clip0_25839_80838)">
<path d="M180.001 22.988V26.3008H174.264V31.9991H170.59V26.3008H164.852V22.6879H170.59V16.9896H174.264V22.6879H180.001V22.988Z" fill="#F79009"/>
<path d="M21.4608 23.3393H16.9751L16.0193 20.0095H13.5579C13.0556 20.0095 12.5837 20.0183 12.1429 20.034C11.6957 20.0504 11.2435 20.0775 10.79 20.1127C10.3478 20.1473 9.926 20.2008 9.52696 20.2731C9.12538 20.3454 8.73774 20.4379 8.36784 20.5493C8.00426 20.6594 7.6578 20.7946 7.33159 20.955C7.00856 21.1142 6.7039 21.2991 6.42013 21.5086C6.14017 21.715 5.88301 21.9572 5.65245 22.2327C5.42 22.5095 5.21034 22.8253 5.02412 23.1776L4.93925 23.3387H0L11.4386 1.73944H15.6532C17.6807 8.82867 19.7405 15.9091 21.763 22.999V23.3387H21.4608V23.3393ZM14.8038 15.8097L12.7446 8.57263L8.29373 17.0025C8.50085 16.8955 8.70987 16.7961 8.92016 16.7055C9.44905 16.4778 9.98617 16.3023 10.5309 16.1783C11.0712 16.0557 11.6305 15.9632 12.2075 15.9022C12.7883 15.8412 13.385 15.8097 13.9943 15.8097H14.8038ZM30.5558 19.4691C31.015 19.4691 31.4318 19.4219 31.8036 19.3288C32.1684 19.237 32.4934 19.0998 32.7759 18.9187C33.0444 18.7463 33.2585 18.516 33.4175 18.2304C33.5822 17.9341 33.6899 17.5749 33.7412 17.1547L33.7735 16.8898H38.3377L38.2966 17.2252C38.2339 17.7423 38.1294 18.2336 37.9843 18.6966C37.8393 19.159 37.6518 19.5956 37.4225 20.0051C37.1945 20.4134 36.9329 20.7908 36.6402 21.1337C36.3457 21.4791 36.017 21.7936 35.6566 22.0761C35.2955 22.3573 34.9111 22.6058 34.5044 22.8178C34.0965 23.0304 33.6639 23.2103 33.2079 23.355C32.7512 23.5003 32.2755 23.6092 31.7846 23.6815C31.2918 23.7532 30.7819 23.7897 30.2556 23.7897C29.6133 23.7897 29.0097 23.7337 28.4466 23.6224C27.8816 23.511 27.3546 23.3412 26.8694 23.1153C26.3842 22.8901 25.944 22.6196 25.5501 22.3051C25.1554 21.9905 24.8033 21.6288 24.4973 21.2237C24.1914 20.8185 23.9336 20.3788 23.7233 19.9051C23.5137 19.432 23.3496 18.9218 23.2331 18.3764C23.1178 17.8379 23.0488 17.273 23.0291 16.6848C23.0095 16.0997 23.0374 15.4952 23.1127 14.8749C23.1887 14.2451 23.3085 13.6349 23.4706 13.0461C23.6321 12.4598 23.8361 11.8993 24.0812 11.3658C24.3276 10.8311 24.612 10.3297 24.9331 9.86541C25.2568 9.39863 25.6166 8.96896 26.0099 8.57829C26.4064 8.18574 26.8378 7.83408 27.3033 7.52582C27.767 7.21882 28.2661 6.95272 28.7988 6.73065C29.3333 6.50732 29.8964 6.33935 30.4849 6.228C31.0752 6.11666 31.6909 6.06067 32.33 6.06067C32.8576 6.06067 33.3599 6.09652 33.8349 6.16887C34.31 6.24059 34.7616 6.35068 35.1872 6.49789C35.6129 6.64509 36.0068 6.8269 36.3653 7.04079C36.7283 7.2572 37.0583 7.50946 37.3547 7.7957C37.6505 8.08194 37.9083 8.40277 38.1237 8.75569C38.339 9.10736 38.5119 9.48984 38.6424 9.90001C38.7729 10.3108 38.8559 10.7518 38.8894 11.2211C38.9224 11.6854 38.9072 12.1773 38.8451 12.6951L38.8134 12.9599H34.2492L34.2897 12.6246C34.3397 12.2063 34.3201 11.8527 34.2295 11.564C34.1453 11.2941 33.9964 11.0783 33.7849 10.9173C33.5543 10.7417 33.2706 10.6084 32.9368 10.519C32.5903 10.4266 32.1881 10.38 31.7301 10.38C31.1746 10.38 30.6717 10.4725 30.2226 10.6562C29.7761 10.8392 29.3764 11.1167 29.0255 11.4853C28.6721 11.8559 28.382 12.3264 28.1565 12.8964C27.9272 13.477 27.7644 14.1608 27.6694 14.9447C27.575 15.7273 27.5719 16.4105 27.6599 16.9911C27.7454 17.5529 27.9171 18.0172 28.1723 18.3833C28.4232 18.7438 28.7443 19.0143 29.1338 19.1936C29.5177 19.371 29.9731 19.4622 30.4988 19.4691H30.5558ZM47.7716 19.4691C48.2308 19.4691 48.6476 19.4219 49.0194 19.3288C49.3842 19.237 49.7092 19.0998 49.9917 18.9187C50.2602 18.7463 50.4743 18.516 50.6333 18.2304C50.798 17.9341 50.9057 17.5749 50.957 17.1547L50.9893 16.8898H55.5535L55.5124 17.2252C55.4497 17.7423 55.3451 18.2336 55.2001 18.6966C55.0551 19.159 54.8676 19.5956 54.6383 20.0051C54.4103 20.4134 54.1487 20.7908 53.856 21.1337C53.5615 21.4791 53.2328 21.7936 52.8724 22.0761C52.5113 22.3573 52.1268 22.6058 51.7202 22.8178C51.3123 23.0304 50.8797 23.2103 50.4236 23.355C49.967 23.5003 49.4913 23.6092 49.0004 23.6815C48.5076 23.7532 47.9977 23.7897 47.4714 23.7897C46.8291 23.7897 46.2255 23.7337 45.6624 23.6224C45.0974 23.511 44.5704 23.3412 44.0852 23.1153C43.6 22.8901 43.1598 22.6196 42.7658 22.3051C42.3712 21.9905 42.0191 21.6288 41.7131 21.2237C41.4072 20.8185 41.1494 20.3788 40.9391 19.9051C40.7295 19.432 40.5654 18.9218 40.4489 18.3764C40.3336 17.8379 40.2645 17.273 40.2449 16.6848C40.2253 16.0997 40.2531 15.4952 40.3285 14.8749C40.4045 14.2451 40.5242 13.6349 40.6864 13.0461C40.8479 12.4598 41.0519 11.8993 41.297 11.3658C41.5434 10.8311 41.8278 10.3297 42.1489 9.86541C42.4726 9.39863 42.8323 8.96896 43.2257 8.57829C43.6222 8.18574 44.0535 7.83408 44.5191 7.52582C44.9827 7.21882 45.4819 6.95272 46.0145 6.73065C46.5491 6.50732 47.1122 6.33935 47.7007 6.228C48.291 6.11666 48.9066 6.06067 49.5457 6.06067C50.0734 6.06067 50.5757 6.09652 51.0507 6.16887C51.5257 6.24059 51.9774 6.35068 52.403 6.49789C52.8287 6.64509 53.2226 6.8269 53.5811 7.04079C53.9441 7.2572 54.2741 7.50946 54.5705 7.7957C54.8663 8.08194 55.1241 8.40277 55.3394 8.75569C55.5548 9.10736 55.7277 9.48984 55.8582 9.90001C55.9887 10.3108 56.0717 10.7518 56.1052 11.2211C56.1382 11.6854 56.123 12.1773 56.0609 12.6951L56.0292 12.9599H51.4649L51.5055 12.6246C51.5555 12.2063 51.5359 11.8527 51.4453 11.564C51.3611 11.2941 51.2122 11.0783 51.0007 10.9173C50.7701 10.7417 50.4863 10.6084 50.1525 10.519C49.8061 10.4266 49.4039 10.38 48.9459 10.38C48.3904 10.38 47.8875 10.4725 47.4384 10.6562C46.9919 10.8392 46.5922 11.1167 46.2413 11.4853C45.8879 11.8559 45.5978 12.3264 45.3723 12.8964C45.143 13.477 44.9802 14.1608 44.8852 14.9447C44.7908 15.7273 44.7877 16.4105 44.8757 16.9911C44.9612 17.5529 45.1329 18.0172 45.3881 18.3833C45.6389 18.7438 45.9601 19.0143 46.3496 19.1936C46.7335 19.371 47.1889 19.4622 47.7146 19.4691H47.7716ZM67.3664 6.06004C68.6567 6.06004 69.8196 6.29469 70.8527 6.76336C71.3682 6.99675 71.8446 7.27418 72.2791 7.59376C72.7142 7.91334 73.1101 8.27821 73.4654 8.68461C73.8208 9.09226 74.128 9.53388 74.3845 10.007C74.641 10.4794 74.8494 10.9865 75.0084 11.5256C75.168 12.066 75.2694 12.6259 75.3118 13.2009C75.3549 13.7752 75.3384 14.3678 75.2656 14.9749C75.1914 15.5826 75.0641 16.1733 74.883 16.7464C74.7031 17.317 74.4668 17.8725 74.178 18.4104C73.8904 18.9451 73.5623 19.4465 73.1956 19.912C72.8282 20.3775 72.4203 20.8097 71.9719 21.2073C71.5228 21.6061 71.0446 21.9622 70.5398 22.2742C70.0356 22.5863 69.4985 22.8593 68.9303 23.0908C68.3596 23.3242 67.7699 23.4991 67.165 23.6148C66.5569 23.7312 65.9318 23.7897 65.2914 23.7897C64.0215 23.7897 62.8687 23.5551 61.835 23.0864C61.32 22.853 60.845 22.5775 60.4104 22.261C59.9734 21.9421 59.5763 21.5822 59.2228 21.1828C58.8687 20.7833 58.5616 20.3454 58.3025 19.8717C58.0453 19.4031 57.8363 18.8966 57.6767 18.3544C57.5171 17.8134 57.4157 17.2541 57.3733 16.6791C57.3309 16.1047 57.3467 15.5128 57.4195 14.9057C57.4936 14.298 57.621 13.7073 57.8021 13.1342C57.982 12.5636 58.2182 12.0081 58.5071 11.4702C58.7946 10.9349 59.1234 10.4329 59.4901 9.96481C59.8569 9.49739 60.2648 9.06206 60.7132 8.65944C61.1623 8.25683 61.6405 7.89698 62.146 7.58181C62.652 7.26601 63.1904 6.99109 63.7573 6.75959C64.328 6.52619 64.9152 6.35131 65.5156 6.23555C66.118 6.11917 66.7356 6.06067 67.3664 6.06067V6.06004ZM65.7202 19.649C66.0876 19.649 66.4341 19.6163 66.7584 19.5515C67.0839 19.4861 67.3943 19.3873 67.6876 19.2565C67.984 19.1244 68.2589 18.9703 68.5123 18.7935C68.7637 18.6186 68.9962 18.4198 69.2077 18.1984C69.4212 17.975 69.6144 17.7366 69.7847 17.4843C69.9551 17.2314 70.1065 16.9616 70.2364 16.6766C70.3675 16.3897 70.4752 16.0978 70.5588 15.8034C70.6417 15.5109 70.7019 15.2102 70.7387 14.9044C70.7767 14.5861 70.7906 14.2785 70.7792 13.9828C70.7684 13.6884 70.731 13.3971 70.6696 13.1122C70.6101 12.8328 70.5252 12.5674 70.4169 12.3176C70.3079 12.0666 70.1762 11.8332 70.0235 11.6181C69.8696 11.4035 69.6904 11.2098 69.4877 11.0399C69.2825 10.8682 69.0494 10.7166 68.7903 10.5876C68.5332 10.4599 68.2519 10.363 67.9454 10.2982C67.6369 10.2334 67.2999 10.2007 66.937 10.2007C66.5709 10.2007 66.2263 10.2334 65.9039 10.2982C65.5802 10.3643 65.2737 10.4624 64.9874 10.592C64.6948 10.7248 64.4224 10.8795 64.1728 11.055C63.922 11.2318 63.6908 11.4312 63.4799 11.6508C63.2664 11.8741 63.0733 12.1125 62.9029 12.3648C62.7319 12.6177 62.5811 12.8869 62.4513 13.1725C62.3201 13.4607 62.2118 13.7551 62.1282 14.0533C62.0446 14.3496 61.9832 14.6578 61.9452 14.9749C61.9084 15.2819 61.8958 15.582 61.9078 15.8732C61.9198 16.1632 61.9566 16.4526 62.0174 16.7382C62.0769 17.0182 62.1618 17.2837 62.2701 17.5334C62.379 17.7844 62.5108 18.0178 62.6634 18.2323C62.8174 18.4462 62.9953 18.6406 63.198 18.8117C63.4014 18.9841 63.6306 19.1351 63.8834 19.2634C64.1329 19.3905 64.411 19.4867 64.715 19.5515C65.021 19.6163 65.3567 19.649 65.7196 19.649H65.7202ZM94.6577 6.97914L92.6764 23.3387H88.2933L88.5992 20.8097C88.3921 21.0601 88.1774 21.296 87.9538 21.5181C87.468 21.9993 86.9423 22.412 86.3785 22.7542C85.8135 23.0971 85.2353 23.3556 84.6468 23.528C84.0533 23.7016 83.4503 23.7891 82.8397 23.7891C82.4141 23.7891 81.996 23.752 81.5875 23.6784C81.1796 23.6048 80.7863 23.494 80.41 23.3481C80.0281 23.2003 79.6721 23.014 79.3446 22.7914C79.0178 22.5693 78.7163 22.3088 78.442 22.0107C78.1665 21.7112 77.9271 21.3759 77.7276 21.0054C77.5281 20.6367 77.3646 20.2309 77.2386 19.7912C77.1125 19.3509 77.0346 18.8759 77.0068 18.3682C76.9789 17.8643 76.9998 17.3283 77.0676 16.764L78.3059 6.54003H82.7194L81.5527 16.1752C81.5147 16.4879 81.5045 16.7791 81.521 17.0459C81.5375 17.3101 81.5812 17.5548 81.6496 17.7762C81.7193 18.0021 81.8079 18.2097 81.9124 18.3971C82.0163 18.5827 82.1392 18.7532 82.2798 18.9067C82.4211 19.0608 82.575 19.1955 82.7403 19.3087C82.9069 19.4226 83.088 19.5188 83.2825 19.5956C83.4826 19.6729 83.6898 19.7321 83.9026 19.7705C84.1135 19.8082 84.339 19.8277 84.5772 19.8277C84.8406 19.8277 85.1029 19.8019 85.36 19.751C85.6204 19.6994 85.8801 19.622 86.1366 19.5194C86.3925 19.4169 86.6408 19.2898 86.8796 19.1395C87.1158 18.991 87.3451 18.8161 87.5662 18.6161C87.7821 18.4211 87.9848 18.199 88.1723 17.9524C88.3623 17.7026 88.5346 17.4315 88.6879 17.139C88.8412 16.8483 88.9685 16.5332 89.0692 16.1953C89.1693 15.8581 89.244 15.497 89.2903 15.112L90.3284 6.53752H95.1011L94.6583 6.97725L94.6577 6.97914ZM107.9 6.06633C108.222 6.07954 108.539 6.11477 108.851 6.17076C109.259 6.24436 109.651 6.35445 110.027 6.50103C110.408 6.64887 110.764 6.83508 111.092 7.05715C111.419 7.27922 111.72 7.53966 111.995 7.83785C112.271 8.13667 112.509 8.4726 112.71 8.84251C112.909 9.21179 113.073 9.61692 113.199 10.0573C113.324 10.4995 113.401 10.9776 113.428 11.4904C113.456 11.9987 113.435 12.5403 113.365 13.114L112.127 23.338H107.744L108.911 13.7029C108.949 13.3896 108.96 13.0958 108.943 12.8259C108.928 12.5604 108.884 12.3119 108.815 12.0836C108.746 11.8527 108.658 11.6413 108.554 11.4514C108.451 11.2645 108.329 11.0934 108.188 10.9399C108.048 10.787 107.893 10.653 107.724 10.5385C107.554 10.424 107.369 10.3272 107.172 10.2517C106.968 10.1737 106.758 10.1145 106.541 10.0755C106.327 10.0372 106.1 10.0177 105.862 10.0177C105.606 10.0177 105.351 10.0428 105.099 10.0931C104.841 10.1454 104.581 10.2234 104.317 10.3265C104.054 10.4297 103.804 10.5574 103.568 10.7084C103.33 10.86 103.104 11.038 102.891 11.2393C102.675 11.4419 102.475 11.669 102.291 11.9169C102.103 12.1679 101.932 12.4422 101.778 12.736C101.624 13.0272 101.497 13.3424 101.396 13.6796C101.296 14.0168 101.222 14.3785 101.175 14.7629L100.137 23.3374H95.7237C96.3983 17.7272 97.0817 12.1176 97.7614 6.50795H102.175L101.868 9.04633C102.066 8.80288 102.272 8.572 102.487 8.35622C102.967 7.87245 103.491 7.45536 104.056 7.1081C104.623 6.75896 105.201 6.49663 105.79 6.32174C106.383 6.14559 106.986 6.05689 107.597 6.05689H107.9V6.06507V6.06633ZM123.507 19.6541L123.062 23.3387H119.472C119.213 23.3387 118.949 23.321 118.681 23.2864C118.417 23.2525 118.154 23.2009 117.894 23.1329C117.624 23.0631 117.37 22.9669 117.134 22.848C116.896 22.7284 116.675 22.5831 116.468 22.4126C116.258 22.239 116.074 22.0402 115.918 21.8169C115.763 21.5936 115.633 21.3457 115.529 21.0746C115.423 20.7978 115.356 20.4895 115.329 20.1517C115.302 19.8227 115.312 19.4622 115.358 19.0728L117.25 3.44868H121.664L121.29 6.53878H124.613L124.145 10.4089H120.822L119.913 17.9134C119.882 18.1682 119.889 18.3877 119.934 18.5683C119.975 18.7318 120.048 18.8671 120.153 18.9728C120.265 19.0854 120.401 19.1703 120.56 19.2275C120.727 19.2873 120.926 19.3175 121.154 19.3175H123.208L123.208 19.6176L123.507 19.6528V19.6541ZM129.611 4.94969C129.267 4.94969 128.953 4.88678 128.671 4.76285C128.386 4.63766 128.135 4.44956 127.92 4.19981C127.707 3.95258 127.556 3.68144 127.469 3.38829C127.382 3.09576 127.359 2.78436 127.399 2.45534C127.439 2.12004 127.537 1.80549 127.692 1.51485C127.845 1.22547 128.054 0.961252 128.317 0.723455C128.58 0.4844 128.865 0.30448 129.168 0.183695C129.475 0.061651 129.799 0 130.138 0C130.48 0 130.794 0.0622801 131.079 0.187469C131.364 0.312029 131.614 0.500128 131.829 0.749877C132.043 0.997739 132.194 1.27202 132.28 1.57084C132.366 1.86714 132.388 2.18546 132.347 2.52454C132.308 2.85041 132.21 3.15741 132.055 3.44428C131.902 3.72862 131.694 3.9897 131.432 4.22624C131.169 4.46466 130.884 4.64521 130.581 4.766C130.274 4.88804 129.95 4.94969 129.611 4.94969ZM125.181 23.0034L127.175 6.53941H131.589C130.91 12.1389 130.225 17.7385 129.554 23.3387H125.141L125.181 23.0034ZM144.716 6.0657C145.039 6.07891 145.356 6.11414 145.668 6.17013C146.076 6.24373 146.468 6.35382 146.844 6.5004C147.225 6.64824 147.581 6.83445 147.909 7.05652C148.236 7.27859 148.537 7.53903 148.812 7.83722C149.088 8.13604 149.326 8.47197 149.527 8.84188C149.726 9.21116 149.889 9.61629 150.016 10.0567C150.141 10.4989 150.218 10.977 150.245 11.4897C150.273 11.998 150.252 12.5397 150.182 13.1134L148.944 23.3374H144.561L145.728 13.7022C145.766 13.389 145.777 13.0952 145.76 12.8253C145.745 12.5598 145.701 12.3113 145.632 12.083C145.563 11.8521 145.475 11.6407 145.371 11.4507C145.268 11.2639 145.146 11.0928 145.005 10.9393C144.865 10.7864 144.71 10.6524 144.541 10.5379C144.371 10.4234 144.186 10.3265 143.989 10.251C143.785 10.173 143.574 10.1139 143.358 10.0749C143.144 10.0365 142.917 10.017 142.679 10.017C142.423 10.017 142.168 10.0422 141.916 10.0925C141.658 10.1447 141.397 10.2227 141.134 10.3259C140.871 10.4291 140.621 10.5568 140.385 10.7078C140.147 10.8594 139.921 11.0374 139.708 11.2387C139.492 11.4413 139.292 11.6684 139.108 11.9162C138.92 12.1673 138.749 12.4415 138.595 12.7353C138.441 13.0266 138.313 13.3418 138.213 13.679C138.113 14.0162 138.039 14.3779 137.992 14.7623L136.954 23.3368H132.541C133.215 17.7265 133.899 12.1169 134.578 6.50732H138.992L138.685 9.04571C138.883 8.80225 139.089 8.57137 139.304 8.35559C139.784 7.87182 140.308 7.45473 140.873 7.10747C141.44 6.75833 142.018 6.496 142.607 6.32111C143.2 6.14496 143.803 6.05626 144.414 6.05626H144.716V6.06444V6.0657Z" fill="#569CE6"/>
<path d="M167.512 24.8818C167.235 25.3014 166.947 25.7034 166.65 26.0852C166.353 26.4677 166.04 26.8389 165.713 27.1975C165.381 27.5605 165.031 27.8964 164.664 28.204C164.295 28.5129 163.9 28.7998 163.483 29.064C163.066 29.3282 162.627 29.5629 162.169 29.7679C161.71 29.9736 161.228 30.1511 160.725 30.2995C160.221 30.4486 159.686 30.5612 159.121 30.6355C158.556 30.7103 157.966 30.7481 157.355 30.7481C156.485 30.7481 155.621 30.6285 154.764 30.3907C154.33 30.2706 153.925 30.1171 153.549 29.9328C153.169 29.7465 152.817 29.5264 152.492 29.2735C152.166 29.0199 151.875 28.7343 151.621 28.4185C151.369 28.1034 151.152 27.7561 150.974 27.3805C150.793 26.9974 150.672 26.581 150.612 26.1324C150.554 25.6889 150.555 25.2146 150.616 24.7126C150.692 24.0816 150.855 23.4984 151.103 22.9649C151.352 22.4308 151.687 21.9452 152.107 21.5111C152.524 21.0808 152.992 20.7153 153.511 20.4165C153.869 20.2108 154.249 20.0365 154.652 19.8937C154.346 19.6364 154.067 19.3527 153.817 19.0438C153.446 18.5858 153.136 18.0712 152.89 17.5013C152.644 16.9332 152.479 16.3312 152.397 15.6989C152.316 15.0705 152.317 14.4143 152.399 13.733C152.463 13.2052 152.574 12.6912 152.731 12.1936C152.887 11.6954 153.09 11.2123 153.339 10.7474C153.588 10.2825 153.872 9.84649 154.189 9.44073C154.506 9.03622 154.859 8.6594 155.245 8.31214C155.634 7.96299 156.049 7.65159 156.488 7.3792C156.93 7.10554 157.401 6.86712 157.898 6.66581C158.396 6.46387 158.911 6.31163 159.438 6.21035C159.966 6.10906 160.506 6.05811 161.057 6.05811C161.607 6.05811 162.136 6.10969 162.64 6.2116C163.143 6.31352 163.621 6.46702 164.07 6.6721C164.519 6.87592 164.933 7.11687 165.31 7.39367C165.687 7.6711 166.03 7.98627 166.337 8.33856C166.642 8.69022 166.909 9.07208 167.133 9.48225C167.357 9.89242 167.541 10.3334 167.684 10.8021C167.826 11.2739 167.918 11.7602 167.957 12.2628C167.995 12.7623 167.983 13.2763 167.919 13.8041C167.856 14.3294 167.744 14.8427 167.584 15.3422C167.423 15.8436 167.216 16.3274 166.962 16.7917C166.71 17.2528 166.423 17.6881 166.102 18.0964C165.783 18.5015 165.43 18.8777 165.043 19.225C164.656 19.5729 164.243 19.8837 163.805 20.1567C163.367 20.4303 162.9 20.6688 162.407 20.8701C161.91 21.0733 161.4 21.2255 160.877 21.3268C160.351 21.4281 159.812 21.479 159.261 21.479C159.042 21.479 158.821 21.4853 158.599 21.4966C158.358 21.5086 158.107 21.5275 157.845 21.5514C157.587 21.5746 157.333 21.6149 157.086 21.6696C156.838 21.7237 156.593 21.7948 156.352 21.881C156.119 21.9634 155.901 22.0647 155.699 22.1836C155.502 22.3 155.319 22.4346 155.154 22.5856C155.002 22.724 154.88 22.8901 154.788 23.0813C154.695 23.2789 154.632 23.5072 154.601 23.7651C154.574 23.9929 154.572 24.2055 154.597 24.4018C154.621 24.593 154.672 24.7748 154.748 24.9447C154.825 25.1164 154.921 25.275 155.036 25.4203C155.152 25.5669 155.288 25.6996 155.442 25.8185C155.603 25.9424 155.78 26.0525 155.972 26.1481C156.167 26.245 156.381 26.3287 156.613 26.3985C156.843 26.4684 157.086 26.5212 157.342 26.5564C157.595 26.5917 157.863 26.6093 158.144 26.6093C158.461 26.6093 158.778 26.5854 159.09 26.5376C159.405 26.4897 159.718 26.4174 160.025 26.323C160.334 26.228 160.639 26.1142 160.94 25.9827C161.243 25.85 161.534 25.7027 161.812 25.5411C162.099 25.3725 162.373 25.1926 162.63 25.0001C162.889 24.8063 163.141 24.5949 163.383 24.3672C163.621 24.1445 163.85 23.9086 164.072 23.6613C164.29 23.4179 164.491 23.1713 164.676 22.9228L164.85 22.6875L167.299 24.3817L167.682 24.6264L167.512 24.883V24.8818ZM160.625 10.2296C160.34 10.2296 160.069 10.2541 159.814 10.302C159.559 10.3504 159.317 10.4234 159.089 10.5196C158.857 10.6159 158.642 10.7316 158.444 10.8637C158.248 10.994 158.068 11.1431 157.904 11.3085C157.738 11.4771 157.587 11.6564 157.455 11.8457C157.32 12.0401 157.202 12.2433 157.103 12.4547C157.003 12.6673 156.92 12.8882 156.854 13.1153C156.789 13.3392 156.742 13.5688 156.714 13.8035C156.658 14.2709 156.678 14.7182 156.775 15.1428C156.823 15.351 156.89 15.5498 156.976 15.7379C157.06 15.9235 157.164 16.0978 157.285 16.2601C157.404 16.4186 157.543 16.5627 157.701 16.6885C157.861 16.8156 158.043 16.9275 158.246 17.0225C158.448 17.1175 158.669 17.1893 158.906 17.2364C159.145 17.2842 159.408 17.3081 159.695 17.3081C159.98 17.3081 160.25 17.2836 160.502 17.2358C160.755 17.1874 160.993 17.1144 161.215 17.0194C161.441 16.9225 161.653 16.8074 161.848 16.6759C162.043 16.5438 162.223 16.3947 162.386 16.2293C162.553 16.0607 162.703 15.8814 162.835 15.692C162.968 15.5014 163.086 15.2976 163.187 15.0831C163.287 14.8698 163.372 14.649 163.437 14.4225C163.501 14.203 163.548 13.9727 163.577 13.7343C163.633 13.2669 163.613 12.8196 163.515 12.3949C163.468 12.1861 163.401 11.9879 163.315 11.7998C163.231 11.6142 163.127 11.4394 163.007 11.2777C162.888 11.1179 162.749 10.9738 162.593 10.848C162.435 10.7209 162.256 10.609 162.059 10.514C161.862 10.4196 161.646 10.3485 161.41 10.3013C161.174 10.2541 160.911 10.2296 160.626 10.2296H160.625Z" fill="#569CE6"/>
</g>
<defs>
<clipPath id="clip0_25839_80838">
<rect width="180" height="32" fill="white"/>
</clipPath>
</defs>
</svg>
